G04 EAGLE Gerber RS-274X export*
G75*
%MOMM*%
%FSLAX34Y34*%
%LPD*%
%INTop Copper*%
%IPPOS*%
%AMOC8*
5,1,8,0,0,1.08239X$1,22.5*%
G01*
%ADD10P,1.732040X8X22.500000*%
%ADD11P,1.429621X8X292.500000*%
%ADD12P,1.429621X8X112.500000*%
%ADD13C,1.320800*%
%ADD14P,1.649562X8X112.500000*%
%ADD15C,1.800000*%
%ADD16C,0.232500*%
%ADD17C,0.281600*%
%ADD18P,1.732040X8X292.500000*%
%ADD19R,1.218000X1.218000*%
%ADD20C,1.218000*%
%ADD21C,0.125000*%
%ADD22C,0.150000*%
%ADD23P,1.649562X8X202.500000*%
%ADD24P,1.649562X8X22.500000*%
%ADD25C,0.127000*%
%ADD26P,1.732040X8X112.500000*%
%ADD27P,1.732040X8X202.500000*%
%ADD28P,1.429621X8X22.500000*%
%ADD29C,0.152400*%


D10*
X635000Y736600D03*
X635000Y647700D03*
X279400Y647700D03*
X279400Y596900D03*
X317500Y647700D03*
X317500Y596900D03*
X228600Y647700D03*
X228600Y596900D03*
D11*
X317500Y203200D03*
X317500Y101600D03*
D12*
X215900Y127000D03*
X215900Y228600D03*
D13*
X374396Y381000D02*
X387604Y381000D01*
X387604Y406400D02*
X374396Y406400D01*
X374396Y431800D02*
X387604Y431800D01*
X387604Y457200D02*
X374396Y457200D01*
X374396Y482600D02*
X387604Y482600D01*
X387604Y508000D02*
X374396Y508000D01*
X374396Y533400D02*
X387604Y533400D01*
X387604Y558800D02*
X374396Y558800D01*
X374396Y177800D02*
X387604Y177800D01*
X387604Y203200D02*
X374396Y203200D01*
X374396Y228600D02*
X387604Y228600D01*
X387604Y254000D02*
X374396Y254000D01*
X374396Y279400D02*
X387604Y279400D01*
X387604Y304800D02*
X374396Y304800D01*
X374396Y330200D02*
X387604Y330200D01*
X387604Y355600D02*
X374396Y355600D01*
X628396Y558800D02*
X641604Y558800D01*
X641604Y533400D02*
X628396Y533400D01*
X628396Y508000D02*
X641604Y508000D01*
X641604Y482600D02*
X628396Y482600D01*
X628396Y457200D02*
X641604Y457200D01*
X641604Y431800D02*
X628396Y431800D01*
X628396Y406400D02*
X641604Y406400D01*
X641604Y381000D02*
X628396Y381000D01*
X628396Y355600D02*
X641604Y355600D01*
X641604Y330200D02*
X628396Y330200D01*
X628396Y304800D02*
X641604Y304800D01*
X641604Y279400D02*
X628396Y279400D01*
X628396Y254000D02*
X641604Y254000D01*
X641604Y228600D02*
X628396Y228600D01*
X628396Y203200D02*
X641604Y203200D01*
X641604Y177800D02*
X628396Y177800D01*
D14*
X342900Y63500D03*
X406400Y101600D03*
X406400Y25400D03*
D15*
X431800Y556260D03*
X431800Y530860D03*
X431800Y505460D03*
X431800Y480060D03*
X431800Y454660D03*
X431800Y429260D03*
X431800Y403860D03*
X431800Y378460D03*
X431800Y353060D03*
X431800Y327660D03*
X431800Y302260D03*
X431800Y276860D03*
X431800Y251460D03*
X431800Y226060D03*
X431800Y200660D03*
X584200Y200660D03*
X584200Y226060D03*
X584200Y251460D03*
X584200Y276860D03*
X584200Y302260D03*
X584200Y327660D03*
X584200Y353060D03*
X584200Y378460D03*
X584200Y403860D03*
X584200Y429260D03*
X584200Y454660D03*
X584200Y480060D03*
X584200Y505460D03*
X584200Y530860D03*
X584200Y556260D03*
X584200Y581660D03*
X584200Y607060D03*
X584200Y632460D03*
X558800Y607060D03*
D16*
X204988Y337012D02*
X189712Y337012D01*
X189712Y343988D01*
X204988Y343988D01*
X204988Y337012D01*
X204988Y339221D02*
X189712Y339221D01*
X189712Y341430D02*
X204988Y341430D01*
X204988Y343639D02*
X189712Y343639D01*
X189712Y314012D02*
X204988Y314012D01*
X189712Y314012D02*
X189712Y320988D01*
X204988Y320988D01*
X204988Y314012D01*
X204988Y316221D02*
X189712Y316221D01*
X189712Y318430D02*
X204988Y318430D01*
X204988Y320639D02*
X189712Y320639D01*
X189712Y291012D02*
X204988Y291012D01*
X189712Y291012D02*
X189712Y297988D01*
X204988Y297988D01*
X204988Y291012D01*
X204988Y293221D02*
X189712Y293221D01*
X189712Y295430D02*
X204988Y295430D01*
X204988Y297639D02*
X189712Y297639D01*
D17*
X252458Y302958D02*
X267242Y302958D01*
X252458Y302958D02*
X252458Y332042D01*
X267242Y332042D01*
X267242Y302958D01*
X267242Y305633D02*
X252458Y305633D01*
X252458Y308308D02*
X267242Y308308D01*
X267242Y310983D02*
X252458Y310983D01*
X252458Y313658D02*
X267242Y313658D01*
X267242Y316333D02*
X252458Y316333D01*
X252458Y319008D02*
X267242Y319008D01*
X267242Y321683D02*
X252458Y321683D01*
X252458Y324358D02*
X267242Y324358D01*
X267242Y327033D02*
X252458Y327033D01*
X252458Y329708D02*
X267242Y329708D01*
D18*
X304800Y342900D03*
X304800Y317500D03*
X101600Y317500D03*
X101600Y292100D03*
D11*
X698500Y508000D03*
X698500Y406400D03*
X787400Y469900D03*
X787400Y368300D03*
X63500Y254000D03*
X63500Y152400D03*
D12*
X139700Y165100D03*
X139700Y266700D03*
D19*
X101600Y114300D03*
D20*
X127000Y114300D03*
X152400Y114300D03*
D21*
X746025Y84075D02*
X760975Y84075D01*
X746025Y84075D02*
X746025Y87825D01*
X760975Y87825D01*
X760975Y84075D01*
X760975Y85262D02*
X746025Y85262D01*
X746025Y86449D02*
X760975Y86449D01*
X760975Y87636D02*
X746025Y87636D01*
X746025Y77575D02*
X760975Y77575D01*
X746025Y77575D02*
X746025Y81325D01*
X760975Y81325D01*
X760975Y77575D01*
X760975Y78762D02*
X746025Y78762D01*
X746025Y79949D02*
X760975Y79949D01*
X760975Y81136D02*
X746025Y81136D01*
X746025Y71075D02*
X760975Y71075D01*
X746025Y71075D02*
X746025Y74825D01*
X760975Y74825D01*
X760975Y71075D01*
X760975Y72262D02*
X746025Y72262D01*
X746025Y73449D02*
X760975Y73449D01*
X760975Y74636D02*
X746025Y74636D01*
X746025Y64575D02*
X760975Y64575D01*
X746025Y64575D02*
X746025Y68325D01*
X760975Y68325D01*
X760975Y64575D01*
X760975Y65762D02*
X746025Y65762D01*
X746025Y66949D02*
X760975Y66949D01*
X760975Y68136D02*
X746025Y68136D01*
X788425Y64575D02*
X803375Y64575D01*
X788425Y64575D02*
X788425Y68325D01*
X803375Y68325D01*
X803375Y64575D01*
X803375Y65762D02*
X788425Y65762D01*
X788425Y66949D02*
X803375Y66949D01*
X803375Y68136D02*
X788425Y68136D01*
X788425Y71075D02*
X803375Y71075D01*
X788425Y71075D02*
X788425Y74825D01*
X803375Y74825D01*
X803375Y71075D01*
X803375Y72262D02*
X788425Y72262D01*
X788425Y73449D02*
X803375Y73449D01*
X803375Y74636D02*
X788425Y74636D01*
X788425Y77575D02*
X803375Y77575D01*
X788425Y77575D02*
X788425Y81325D01*
X803375Y81325D01*
X803375Y77575D01*
X803375Y78762D02*
X788425Y78762D01*
X788425Y79949D02*
X803375Y79949D01*
X803375Y81136D02*
X788425Y81136D01*
X788425Y84075D02*
X803375Y84075D01*
X788425Y84075D02*
X788425Y87825D01*
X803375Y87825D01*
X803375Y84075D01*
X803375Y85262D02*
X788425Y85262D01*
X788425Y86449D02*
X803375Y86449D01*
X803375Y87636D02*
X788425Y87636D01*
D10*
X863600Y419100D03*
X889000Y419100D03*
D11*
X698500Y215900D03*
X698500Y114300D03*
D12*
X876300Y114300D03*
X876300Y215900D03*
D22*
X275300Y448800D02*
X275300Y467000D01*
X275300Y448800D02*
X270800Y448800D01*
X270800Y467000D01*
X275300Y467000D01*
X275300Y450225D02*
X270800Y450225D01*
X270800Y451650D02*
X275300Y451650D01*
X275300Y453075D02*
X270800Y453075D01*
X270800Y454500D02*
X275300Y454500D01*
X275300Y455925D02*
X270800Y455925D01*
X270800Y457350D02*
X275300Y457350D01*
X275300Y458775D02*
X270800Y458775D01*
X270800Y460200D02*
X275300Y460200D01*
X275300Y461625D02*
X270800Y461625D01*
X270800Y463050D02*
X275300Y463050D01*
X275300Y464475D02*
X270800Y464475D01*
X270800Y465900D02*
X275300Y465900D01*
X288000Y467000D02*
X288000Y448800D01*
X283500Y448800D01*
X283500Y467000D01*
X288000Y467000D01*
X288000Y450225D02*
X283500Y450225D01*
X283500Y451650D02*
X288000Y451650D01*
X288000Y453075D02*
X283500Y453075D01*
X283500Y454500D02*
X288000Y454500D01*
X288000Y455925D02*
X283500Y455925D01*
X283500Y457350D02*
X288000Y457350D01*
X288000Y458775D02*
X283500Y458775D01*
X283500Y460200D02*
X288000Y460200D01*
X288000Y461625D02*
X283500Y461625D01*
X283500Y463050D02*
X288000Y463050D01*
X288000Y464475D02*
X283500Y464475D01*
X283500Y465900D02*
X288000Y465900D01*
X300700Y467000D02*
X300700Y448800D01*
X296200Y448800D01*
X296200Y467000D01*
X300700Y467000D01*
X300700Y450225D02*
X296200Y450225D01*
X296200Y451650D02*
X300700Y451650D01*
X300700Y453075D02*
X296200Y453075D01*
X296200Y454500D02*
X300700Y454500D01*
X300700Y455925D02*
X296200Y455925D01*
X296200Y457350D02*
X300700Y457350D01*
X300700Y458775D02*
X296200Y458775D01*
X296200Y460200D02*
X300700Y460200D01*
X300700Y461625D02*
X296200Y461625D01*
X296200Y463050D02*
X300700Y463050D01*
X300700Y464475D02*
X296200Y464475D01*
X296200Y465900D02*
X300700Y465900D01*
X313400Y467000D02*
X313400Y448800D01*
X308900Y448800D01*
X308900Y467000D01*
X313400Y467000D01*
X313400Y450225D02*
X308900Y450225D01*
X308900Y451650D02*
X313400Y451650D01*
X313400Y453075D02*
X308900Y453075D01*
X308900Y454500D02*
X313400Y454500D01*
X313400Y455925D02*
X308900Y455925D01*
X308900Y457350D02*
X313400Y457350D01*
X313400Y458775D02*
X308900Y458775D01*
X308900Y460200D02*
X313400Y460200D01*
X313400Y461625D02*
X308900Y461625D01*
X308900Y463050D02*
X313400Y463050D01*
X313400Y464475D02*
X308900Y464475D01*
X308900Y465900D02*
X313400Y465900D01*
X313400Y498200D02*
X313400Y516400D01*
X313400Y498200D02*
X308900Y498200D01*
X308900Y516400D01*
X313400Y516400D01*
X313400Y499625D02*
X308900Y499625D01*
X308900Y501050D02*
X313400Y501050D01*
X313400Y502475D02*
X308900Y502475D01*
X308900Y503900D02*
X313400Y503900D01*
X313400Y505325D02*
X308900Y505325D01*
X308900Y506750D02*
X313400Y506750D01*
X313400Y508175D02*
X308900Y508175D01*
X308900Y509600D02*
X313400Y509600D01*
X313400Y511025D02*
X308900Y511025D01*
X308900Y512450D02*
X313400Y512450D01*
X313400Y513875D02*
X308900Y513875D01*
X308900Y515300D02*
X313400Y515300D01*
X300700Y516400D02*
X300700Y498200D01*
X296200Y498200D01*
X296200Y516400D01*
X300700Y516400D01*
X300700Y499625D02*
X296200Y499625D01*
X296200Y501050D02*
X300700Y501050D01*
X300700Y502475D02*
X296200Y502475D01*
X296200Y503900D02*
X300700Y503900D01*
X300700Y505325D02*
X296200Y505325D01*
X296200Y506750D02*
X300700Y506750D01*
X300700Y508175D02*
X296200Y508175D01*
X296200Y509600D02*
X300700Y509600D01*
X300700Y511025D02*
X296200Y511025D01*
X296200Y512450D02*
X300700Y512450D01*
X300700Y513875D02*
X296200Y513875D01*
X296200Y515300D02*
X300700Y515300D01*
X288000Y516400D02*
X288000Y498200D01*
X283500Y498200D01*
X283500Y516400D01*
X288000Y516400D01*
X288000Y499625D02*
X283500Y499625D01*
X283500Y501050D02*
X288000Y501050D01*
X288000Y502475D02*
X283500Y502475D01*
X283500Y503900D02*
X288000Y503900D01*
X288000Y505325D02*
X283500Y505325D01*
X283500Y506750D02*
X288000Y506750D01*
X288000Y508175D02*
X283500Y508175D01*
X283500Y509600D02*
X288000Y509600D01*
X288000Y511025D02*
X283500Y511025D01*
X283500Y512450D02*
X288000Y512450D01*
X288000Y513875D02*
X283500Y513875D01*
X283500Y515300D02*
X288000Y515300D01*
X275300Y516400D02*
X275300Y498200D01*
X270800Y498200D01*
X270800Y516400D01*
X275300Y516400D01*
X275300Y499625D02*
X270800Y499625D01*
X270800Y501050D02*
X275300Y501050D01*
X275300Y502475D02*
X270800Y502475D01*
X270800Y503900D02*
X275300Y503900D01*
X275300Y505325D02*
X270800Y505325D01*
X270800Y506750D02*
X275300Y506750D01*
X275300Y508175D02*
X270800Y508175D01*
X270800Y509600D02*
X275300Y509600D01*
X275300Y511025D02*
X270800Y511025D01*
X270800Y512450D02*
X275300Y512450D01*
X275300Y513875D02*
X270800Y513875D01*
X270800Y515300D02*
X275300Y515300D01*
D23*
X800100Y647700D03*
D24*
X850900Y647700D03*
X901700Y647700D03*
X800100Y520700D03*
X850900Y520700D03*
X901700Y520700D03*
D25*
X952500Y660400D02*
X749300Y660400D01*
X952500Y660400D02*
X952500Y508000D01*
X749300Y508000D01*
X749300Y660400D01*
D12*
X228600Y469900D03*
X228600Y571500D03*
X165100Y444500D03*
X165100Y546100D03*
X127000Y444500D03*
X127000Y546100D03*
D26*
X203200Y393700D03*
X203200Y419100D03*
D27*
X304800Y419100D03*
X279400Y419100D03*
X304800Y381000D03*
X279400Y381000D03*
D28*
X431800Y101600D03*
X533400Y101600D03*
D11*
X584200Y127000D03*
X584200Y25400D03*
D26*
X635000Y101600D03*
X635000Y127000D03*
D27*
X520700Y38100D03*
X495300Y38100D03*
D29*
X586740Y431292D02*
X633984Y431292D01*
X586740Y431292D02*
X585216Y429768D01*
X633984Y431292D02*
X635000Y431800D01*
X585216Y429768D02*
X584200Y429260D01*
X635000Y431800D02*
X698500Y368300D01*
X787400Y368300D01*
X176784Y266700D02*
X139700Y266700D01*
X176784Y266700D02*
X214884Y228600D01*
X215900Y228600D01*
X586740Y533400D02*
X635000Y533400D01*
X586740Y533400D02*
X584200Y530860D01*
X284988Y454152D02*
X275844Y445008D01*
X218948Y445008D01*
X190500Y473456D01*
X190500Y558800D02*
X228600Y596900D01*
X190500Y558800D02*
X190500Y473456D01*
X228600Y596900D02*
X228600Y647700D01*
X635000Y533400D02*
X635508Y533400D01*
X635000Y533400D02*
X673100Y533400D01*
X276352Y695452D02*
X228600Y647700D01*
X625348Y695452D02*
X673100Y647700D01*
X673100Y533400D01*
X625348Y695452D02*
X276352Y695452D01*
X275844Y422656D02*
X279400Y419100D01*
X275844Y422656D02*
X275844Y445008D01*
X279400Y419100D02*
X279400Y381000D01*
X254000Y393700D02*
X279400Y419100D01*
X254000Y393700D02*
X203200Y393700D01*
X406400Y25400D02*
X482600Y25400D01*
X495300Y38100D01*
X699750Y12700D02*
X753500Y66450D01*
X699750Y12700D02*
X508000Y12700D01*
X495300Y25400D01*
X495300Y38100D01*
X274320Y458724D02*
X274320Y463296D01*
X274320Y458724D02*
X273050Y457900D01*
X382524Y455676D02*
X431292Y455676D01*
X382524Y455676D02*
X381000Y457200D01*
X431292Y455676D02*
X431800Y454660D01*
X273050Y457900D02*
X227900Y457900D01*
X203200Y482600D01*
X203200Y558672D01*
X224918Y580390D01*
X250190Y580390D02*
X254000Y584200D01*
X250190Y580390D02*
X224918Y580390D01*
X254000Y584200D02*
X254000Y647700D01*
X279400Y673100D01*
X330200Y673100D02*
X355600Y647700D01*
X355600Y457200D01*
X381000Y457200D01*
X330200Y673100D02*
X279400Y673100D01*
X325120Y450200D02*
X325120Y310388D01*
X381000Y254508D01*
X325120Y450200D02*
X311150Y457900D01*
X381000Y254508D02*
X381000Y254000D01*
X382524Y251460D02*
X431800Y251460D01*
X382524Y251460D02*
X381000Y252984D01*
X381000Y254000D01*
X586740Y278892D02*
X633984Y278892D01*
X586740Y278892D02*
X585216Y277368D01*
X633984Y278892D02*
X635000Y279400D01*
X585216Y277368D02*
X584200Y276860D01*
X635508Y278892D02*
X635508Y272796D01*
X635508Y278892D02*
X635000Y279400D01*
X797614Y74664D02*
X795900Y72950D01*
X797614Y74664D02*
X804581Y74664D01*
X806117Y76200D01*
X901700Y76200D01*
X914400Y88900D01*
X914400Y203200D01*
X901700Y215900D01*
X876300Y215900D01*
X633984Y405384D02*
X586740Y405384D01*
X585216Y403860D01*
X633984Y405384D02*
X635000Y406400D01*
X585216Y403860D02*
X584200Y403860D01*
X586740Y557784D02*
X633984Y557784D01*
X586740Y557784D02*
X585216Y556260D01*
X633984Y557784D02*
X635000Y558800D01*
X585216Y556260D02*
X584200Y556260D01*
X635508Y735584D02*
X635000Y736600D01*
X635508Y559308D02*
X635000Y558800D01*
X635000Y647700D02*
X635508Y647700D01*
X284988Y591312D02*
X284988Y507492D01*
X284988Y591312D02*
X279400Y596900D01*
X284988Y507492D02*
X285750Y507300D01*
X280416Y597408D02*
X280416Y647700D01*
X279400Y647700D01*
X280416Y597408D02*
X279400Y596900D01*
X298704Y577596D02*
X298704Y507492D01*
X298704Y577596D02*
X316992Y595884D01*
X298704Y507492D02*
X298450Y507300D01*
X316992Y595884D02*
X317500Y596900D01*
X318516Y597408D02*
X318516Y647700D01*
X317500Y647700D01*
X318516Y597408D02*
X317500Y596900D01*
X342900Y64008D02*
X342900Y63500D01*
X342900Y101600D01*
X355600Y114300D01*
X419100Y114300D01*
X431800Y101600D01*
X316992Y102108D02*
X240792Y102108D01*
X215900Y127000D01*
X316992Y102108D02*
X317500Y101600D01*
X127000Y114300D02*
X127000Y76200D01*
X215900Y76200D01*
X240792Y101092D01*
X240792Y102108D01*
X196596Y294132D02*
X103632Y294132D01*
X101600Y292100D01*
X196596Y294132D02*
X197350Y294500D01*
X101600Y292100D02*
X63500Y254000D01*
X279908Y203200D02*
X317500Y203200D01*
X279908Y203200D02*
X201308Y281800D01*
X201308Y290542D02*
X197350Y294500D01*
X201308Y290542D02*
X201308Y281800D01*
X586740Y507492D02*
X633984Y507492D01*
X586740Y507492D02*
X585216Y505968D01*
X633984Y507492D02*
X635000Y508000D01*
X585216Y505968D02*
X584200Y505460D01*
X586740Y481584D02*
X633984Y481584D01*
X586740Y481584D02*
X585216Y480060D01*
X633984Y481584D02*
X635000Y482600D01*
X585216Y480060D02*
X584200Y480060D01*
X586740Y457200D02*
X635000Y457200D01*
X586740Y457200D02*
X584200Y454660D01*
X586740Y381000D02*
X635000Y381000D01*
X586740Y381000D02*
X584200Y378460D01*
X586740Y355092D02*
X633984Y355092D01*
X586740Y355092D02*
X585216Y353568D01*
X633984Y355092D02*
X635000Y355600D01*
X585216Y353568D02*
X584200Y353060D01*
X586740Y329184D02*
X633984Y329184D01*
X586740Y329184D02*
X585216Y327660D01*
X633984Y329184D02*
X635000Y330200D01*
X585216Y327660D02*
X584200Y327660D01*
X586740Y304800D02*
X635000Y304800D01*
X586740Y304800D02*
X584200Y302260D01*
X586740Y252984D02*
X633984Y252984D01*
X586740Y252984D02*
X585216Y251460D01*
X633984Y252984D02*
X635000Y254000D01*
X585216Y251460D02*
X584200Y251460D01*
X586740Y202692D02*
X633984Y202692D01*
X586740Y202692D02*
X585216Y201168D01*
X633984Y202692D02*
X635000Y203200D01*
X585216Y201168D02*
X584200Y200660D01*
X429768Y381000D02*
X381000Y381000D01*
X429768Y381000D02*
X431292Y379476D01*
X431800Y378460D01*
X429768Y405384D02*
X381000Y405384D01*
X429768Y405384D02*
X431292Y403860D01*
X381000Y405384D02*
X381000Y406400D01*
X431292Y403860D02*
X431800Y403860D01*
X429768Y431292D02*
X381000Y431292D01*
X429768Y431292D02*
X431800Y429260D01*
X381000Y431292D02*
X381000Y431800D01*
X381000Y481584D02*
X429768Y481584D01*
X431292Y480060D01*
X381000Y481584D02*
X381000Y482600D01*
X431292Y480060D02*
X431800Y480060D01*
X429768Y507492D02*
X381000Y507492D01*
X429768Y507492D02*
X431800Y505460D01*
X381000Y507492D02*
X381000Y508000D01*
X381000Y533400D02*
X429768Y533400D01*
X431292Y531876D01*
X431800Y530860D01*
X429768Y557784D02*
X381000Y557784D01*
X429768Y557784D02*
X431292Y556260D01*
X381000Y557784D02*
X381000Y558800D01*
X431292Y556260D02*
X431800Y556260D01*
X429768Y202692D02*
X381000Y202692D01*
X429768Y202692D02*
X431800Y200660D01*
X381000Y202692D02*
X381000Y203200D01*
X381000Y228600D02*
X429768Y228600D01*
X431292Y227076D01*
X431800Y226060D01*
X429768Y278892D02*
X381000Y278892D01*
X429768Y278892D02*
X431800Y276860D01*
X381000Y278892D02*
X381000Y279400D01*
X381000Y304800D02*
X429768Y304800D01*
X431292Y303276D01*
X431800Y302260D01*
X429768Y329184D02*
X381000Y329184D01*
X429768Y329184D02*
X431292Y327660D01*
X381000Y329184D02*
X381000Y330200D01*
X431292Y327660D02*
X431800Y327660D01*
X429768Y355092D02*
X381000Y355092D01*
X429768Y355092D02*
X431800Y353060D01*
X381000Y355092D02*
X381000Y355600D01*
X260604Y318516D02*
X259850Y317500D01*
X261620Y317500D02*
X304800Y317500D01*
X261620Y317500D02*
X260604Y318516D01*
X196596Y316992D02*
X102108Y316992D01*
X196596Y316992D02*
X197350Y317500D01*
X102108Y316992D02*
X101600Y317500D01*
X62484Y152400D02*
X100584Y114300D01*
X101600Y114300D01*
X63500Y152400D02*
X62484Y152400D01*
X152400Y152400D02*
X152400Y114300D01*
X152400Y152400D02*
X139700Y165100D01*
X733350Y79450D02*
X753500Y79450D01*
X733350Y79450D02*
X698500Y114300D01*
X202692Y341376D02*
X198120Y341376D01*
X197350Y340500D01*
X297180Y457200D02*
X298450Y457900D01*
X635000Y228600D02*
X635508Y228600D01*
X632460Y227076D02*
X585216Y227076D01*
X632460Y227076D02*
X633984Y228600D01*
X585216Y227076D02*
X584200Y226060D01*
X633984Y228600D02*
X635000Y228600D01*
X699516Y506984D02*
X698500Y508000D01*
X797614Y81164D02*
X795900Y79450D01*
X797614Y81164D02*
X804581Y81164D01*
X825500Y102083D01*
X825500Y279400D01*
X863600Y317500D01*
X863600Y419100D01*
X825500Y279400D02*
X685800Y279400D01*
X635000Y228600D01*
X838200Y419100D02*
X787400Y469900D01*
X838200Y419100D02*
X863600Y419100D01*
X736600Y469900D02*
X698500Y508000D01*
X736600Y469900D02*
X787400Y469900D01*
X63500Y431800D02*
X63500Y533400D01*
X241300Y711200D01*
X635000Y711200D01*
X711200Y635000D01*
X711200Y520700D01*
X698500Y508000D01*
X304800Y419100D02*
X298450Y425450D01*
X298450Y457900D01*
X304800Y419100D02*
X304800Y381000D01*
X304800Y342900D01*
X292100Y355600D01*
X203200Y355600D01*
X198120Y350520D01*
X198120Y341376D01*
X197350Y340500D02*
X154800Y340500D01*
X63500Y431800D01*
X228600Y571500D02*
X273050Y527050D01*
X273050Y507300D01*
X165100Y444500D02*
X127000Y444500D01*
X165100Y444500D02*
X190500Y419100D01*
X203200Y419100D01*
X533400Y101600D02*
X558800Y101600D01*
X584200Y127000D01*
X635000Y127000D01*
X571500Y38100D02*
X520700Y38100D01*
X571500Y38100D02*
X584200Y25400D01*
X631750Y72950D01*
X753500Y72950D01*
M02*
