G04 EAGLE Gerber RS-274X export*
G75*
%MOMM*%
%FSLAX34Y34*%
%LPD*%
%INSoldermask Bottom*%
%IPPOS*%
%AMOC8*
5,1,8,0,0,1.08239X$1,22.5*%
G01*
%ADD10P,1.951982X8X22.500000*%
%ADD11P,1.649562X8X292.500000*%
%ADD12P,1.649562X8X112.500000*%
%ADD13C,1.524000*%
%ADD14P,1.869504X8X112.500000*%
%ADD15C,2.003200*%
%ADD16P,1.951982X8X292.500000*%
%ADD17R,1.421200X1.421200*%
%ADD18C,1.421200*%
%ADD19P,1.869504X8X202.500000*%
%ADD20P,1.869504X8X22.500000*%
%ADD21P,1.951982X8X112.500000*%
%ADD22P,1.951982X8X202.500000*%
%ADD23P,1.649562X8X22.500000*%


D10*
X635000Y736600D03*
X635000Y647700D03*
X279400Y647700D03*
X279400Y596900D03*
X317500Y647700D03*
X317500Y596900D03*
X228600Y647700D03*
X228600Y596900D03*
D11*
X317500Y203200D03*
X317500Y101600D03*
D12*
X215900Y127000D03*
X215900Y228600D03*
D13*
X374396Y381000D02*
X387604Y381000D01*
X387604Y406400D02*
X374396Y406400D01*
X374396Y431800D02*
X387604Y431800D01*
X387604Y457200D02*
X374396Y457200D01*
X374396Y482600D02*
X387604Y482600D01*
X387604Y508000D02*
X374396Y508000D01*
X374396Y533400D02*
X387604Y533400D01*
X387604Y558800D02*
X374396Y558800D01*
X374396Y177800D02*
X387604Y177800D01*
X387604Y203200D02*
X374396Y203200D01*
X374396Y228600D02*
X387604Y228600D01*
X387604Y254000D02*
X374396Y254000D01*
X374396Y279400D02*
X387604Y279400D01*
X387604Y304800D02*
X374396Y304800D01*
X374396Y330200D02*
X387604Y330200D01*
X387604Y355600D02*
X374396Y355600D01*
X628396Y558800D02*
X641604Y558800D01*
X641604Y533400D02*
X628396Y533400D01*
X628396Y508000D02*
X641604Y508000D01*
X641604Y482600D02*
X628396Y482600D01*
X628396Y457200D02*
X641604Y457200D01*
X641604Y431800D02*
X628396Y431800D01*
X628396Y406400D02*
X641604Y406400D01*
X641604Y381000D02*
X628396Y381000D01*
X628396Y355600D02*
X641604Y355600D01*
X641604Y330200D02*
X628396Y330200D01*
X628396Y304800D02*
X641604Y304800D01*
X641604Y279400D02*
X628396Y279400D01*
X628396Y254000D02*
X641604Y254000D01*
X641604Y228600D02*
X628396Y228600D01*
X628396Y203200D02*
X641604Y203200D01*
X641604Y177800D02*
X628396Y177800D01*
D14*
X342900Y63500D03*
X406400Y101600D03*
X406400Y25400D03*
D15*
X431800Y556260D03*
X431800Y530860D03*
X431800Y505460D03*
X431800Y480060D03*
X431800Y454660D03*
X431800Y429260D03*
X431800Y403860D03*
X431800Y378460D03*
X431800Y353060D03*
X431800Y327660D03*
X431800Y302260D03*
X431800Y276860D03*
X431800Y251460D03*
X431800Y226060D03*
X431800Y200660D03*
X584200Y200660D03*
X584200Y226060D03*
X584200Y251460D03*
X584200Y276860D03*
X584200Y302260D03*
X584200Y327660D03*
X584200Y353060D03*
X584200Y378460D03*
X584200Y403860D03*
X584200Y429260D03*
X584200Y454660D03*
X584200Y480060D03*
X584200Y505460D03*
X584200Y530860D03*
X584200Y556260D03*
X584200Y581660D03*
X584200Y607060D03*
X584200Y632460D03*
X558800Y607060D03*
D16*
X304800Y342900D03*
X304800Y317500D03*
X101600Y317500D03*
X101600Y292100D03*
D11*
X698500Y508000D03*
X698500Y406400D03*
X787400Y469900D03*
X787400Y368300D03*
X63500Y254000D03*
X63500Y152400D03*
D12*
X139700Y165100D03*
X139700Y266700D03*
D17*
X101600Y114300D03*
D18*
X127000Y114300D03*
X152400Y114300D03*
D10*
X863600Y419100D03*
X889000Y419100D03*
D11*
X698500Y215900D03*
X698500Y114300D03*
D12*
X876300Y114300D03*
X876300Y215900D03*
D19*
X800100Y647700D03*
D20*
X850900Y647700D03*
X901700Y647700D03*
X800100Y520700D03*
X850900Y520700D03*
X901700Y520700D03*
D12*
X228600Y469900D03*
X228600Y571500D03*
X165100Y444500D03*
X165100Y546100D03*
X127000Y444500D03*
X127000Y546100D03*
D21*
X203200Y393700D03*
X203200Y419100D03*
D22*
X304800Y419100D03*
X279400Y419100D03*
X304800Y381000D03*
X279400Y381000D03*
D23*
X431800Y101600D03*
X533400Y101600D03*
D11*
X584200Y127000D03*
X584200Y25400D03*
D21*
X635000Y101600D03*
X635000Y127000D03*
D22*
X520700Y38100D03*
X495300Y38100D03*
M02*
