G04 EAGLE Gerber RS-274X export*
G75*
%MOMM*%
%FSLAX34Y34*%
%LPD*%
%INSolderpaste Top*%
%IPPOS*%
%AMOC8*
5,1,8,0,0,1.08239X$1,22.5*%
G01*
%ADD10C,0.232500*%
%ADD11C,0.281600*%
%ADD12C,0.125000*%
%ADD13C,0.150000*%


D10*
X204988Y337012D02*
X189712Y337012D01*
X189712Y343988D01*
X204988Y343988D01*
X204988Y337012D01*
X204988Y339221D02*
X189712Y339221D01*
X189712Y341430D02*
X204988Y341430D01*
X204988Y343639D02*
X189712Y343639D01*
X189712Y314012D02*
X204988Y314012D01*
X189712Y314012D02*
X189712Y320988D01*
X204988Y320988D01*
X204988Y314012D01*
X204988Y316221D02*
X189712Y316221D01*
X189712Y318430D02*
X204988Y318430D01*
X204988Y320639D02*
X189712Y320639D01*
X189712Y291012D02*
X204988Y291012D01*
X189712Y291012D02*
X189712Y297988D01*
X204988Y297988D01*
X204988Y291012D01*
X204988Y293221D02*
X189712Y293221D01*
X189712Y295430D02*
X204988Y295430D01*
X204988Y297639D02*
X189712Y297639D01*
D11*
X252458Y302958D02*
X267242Y302958D01*
X252458Y302958D02*
X252458Y332042D01*
X267242Y332042D01*
X267242Y302958D01*
X267242Y305633D02*
X252458Y305633D01*
X252458Y308308D02*
X267242Y308308D01*
X267242Y310983D02*
X252458Y310983D01*
X252458Y313658D02*
X267242Y313658D01*
X267242Y316333D02*
X252458Y316333D01*
X252458Y319008D02*
X267242Y319008D01*
X267242Y321683D02*
X252458Y321683D01*
X252458Y324358D02*
X267242Y324358D01*
X267242Y327033D02*
X252458Y327033D01*
X252458Y329708D02*
X267242Y329708D01*
D12*
X746025Y84075D02*
X760975Y84075D01*
X746025Y84075D02*
X746025Y87825D01*
X760975Y87825D01*
X760975Y84075D01*
X760975Y85262D02*
X746025Y85262D01*
X746025Y86449D02*
X760975Y86449D01*
X760975Y87636D02*
X746025Y87636D01*
X746025Y77575D02*
X760975Y77575D01*
X746025Y77575D02*
X746025Y81325D01*
X760975Y81325D01*
X760975Y77575D01*
X760975Y78762D02*
X746025Y78762D01*
X746025Y79949D02*
X760975Y79949D01*
X760975Y81136D02*
X746025Y81136D01*
X746025Y71075D02*
X760975Y71075D01*
X746025Y71075D02*
X746025Y74825D01*
X760975Y74825D01*
X760975Y71075D01*
X760975Y72262D02*
X746025Y72262D01*
X746025Y73449D02*
X760975Y73449D01*
X760975Y74636D02*
X746025Y74636D01*
X746025Y64575D02*
X760975Y64575D01*
X746025Y64575D02*
X746025Y68325D01*
X760975Y68325D01*
X760975Y64575D01*
X760975Y65762D02*
X746025Y65762D01*
X746025Y66949D02*
X760975Y66949D01*
X760975Y68136D02*
X746025Y68136D01*
X788425Y64575D02*
X803375Y64575D01*
X788425Y64575D02*
X788425Y68325D01*
X803375Y68325D01*
X803375Y64575D01*
X803375Y65762D02*
X788425Y65762D01*
X788425Y66949D02*
X803375Y66949D01*
X803375Y68136D02*
X788425Y68136D01*
X788425Y71075D02*
X803375Y71075D01*
X788425Y71075D02*
X788425Y74825D01*
X803375Y74825D01*
X803375Y71075D01*
X803375Y72262D02*
X788425Y72262D01*
X788425Y73449D02*
X803375Y73449D01*
X803375Y74636D02*
X788425Y74636D01*
X788425Y77575D02*
X803375Y77575D01*
X788425Y77575D02*
X788425Y81325D01*
X803375Y81325D01*
X803375Y77575D01*
X803375Y78762D02*
X788425Y78762D01*
X788425Y79949D02*
X803375Y79949D01*
X803375Y81136D02*
X788425Y81136D01*
X788425Y84075D02*
X803375Y84075D01*
X788425Y84075D02*
X788425Y87825D01*
X803375Y87825D01*
X803375Y84075D01*
X803375Y85262D02*
X788425Y85262D01*
X788425Y86449D02*
X803375Y86449D01*
X803375Y87636D02*
X788425Y87636D01*
D13*
X275300Y448800D02*
X275300Y467000D01*
X275300Y448800D02*
X270800Y448800D01*
X270800Y467000D01*
X275300Y467000D01*
X275300Y450225D02*
X270800Y450225D01*
X270800Y451650D02*
X275300Y451650D01*
X275300Y453075D02*
X270800Y453075D01*
X270800Y454500D02*
X275300Y454500D01*
X275300Y455925D02*
X270800Y455925D01*
X270800Y457350D02*
X275300Y457350D01*
X275300Y458775D02*
X270800Y458775D01*
X270800Y460200D02*
X275300Y460200D01*
X275300Y461625D02*
X270800Y461625D01*
X270800Y463050D02*
X275300Y463050D01*
X275300Y464475D02*
X270800Y464475D01*
X270800Y465900D02*
X275300Y465900D01*
X288000Y467000D02*
X288000Y448800D01*
X283500Y448800D01*
X283500Y467000D01*
X288000Y467000D01*
X288000Y450225D02*
X283500Y450225D01*
X283500Y451650D02*
X288000Y451650D01*
X288000Y453075D02*
X283500Y453075D01*
X283500Y454500D02*
X288000Y454500D01*
X288000Y455925D02*
X283500Y455925D01*
X283500Y457350D02*
X288000Y457350D01*
X288000Y458775D02*
X283500Y458775D01*
X283500Y460200D02*
X288000Y460200D01*
X288000Y461625D02*
X283500Y461625D01*
X283500Y463050D02*
X288000Y463050D01*
X288000Y464475D02*
X283500Y464475D01*
X283500Y465900D02*
X288000Y465900D01*
X300700Y467000D02*
X300700Y448800D01*
X296200Y448800D01*
X296200Y467000D01*
X300700Y467000D01*
X300700Y450225D02*
X296200Y450225D01*
X296200Y451650D02*
X300700Y451650D01*
X300700Y453075D02*
X296200Y453075D01*
X296200Y454500D02*
X300700Y454500D01*
X300700Y455925D02*
X296200Y455925D01*
X296200Y457350D02*
X300700Y457350D01*
X300700Y458775D02*
X296200Y458775D01*
X296200Y460200D02*
X300700Y460200D01*
X300700Y461625D02*
X296200Y461625D01*
X296200Y463050D02*
X300700Y463050D01*
X300700Y464475D02*
X296200Y464475D01*
X296200Y465900D02*
X300700Y465900D01*
X313400Y467000D02*
X313400Y448800D01*
X308900Y448800D01*
X308900Y467000D01*
X313400Y467000D01*
X313400Y450225D02*
X308900Y450225D01*
X308900Y451650D02*
X313400Y451650D01*
X313400Y453075D02*
X308900Y453075D01*
X308900Y454500D02*
X313400Y454500D01*
X313400Y455925D02*
X308900Y455925D01*
X308900Y457350D02*
X313400Y457350D01*
X313400Y458775D02*
X308900Y458775D01*
X308900Y460200D02*
X313400Y460200D01*
X313400Y461625D02*
X308900Y461625D01*
X308900Y463050D02*
X313400Y463050D01*
X313400Y464475D02*
X308900Y464475D01*
X308900Y465900D02*
X313400Y465900D01*
X313400Y498200D02*
X313400Y516400D01*
X313400Y498200D02*
X308900Y498200D01*
X308900Y516400D01*
X313400Y516400D01*
X313400Y499625D02*
X308900Y499625D01*
X308900Y501050D02*
X313400Y501050D01*
X313400Y502475D02*
X308900Y502475D01*
X308900Y503900D02*
X313400Y503900D01*
X313400Y505325D02*
X308900Y505325D01*
X308900Y506750D02*
X313400Y506750D01*
X313400Y508175D02*
X308900Y508175D01*
X308900Y509600D02*
X313400Y509600D01*
X313400Y511025D02*
X308900Y511025D01*
X308900Y512450D02*
X313400Y512450D01*
X313400Y513875D02*
X308900Y513875D01*
X308900Y515300D02*
X313400Y515300D01*
X300700Y516400D02*
X300700Y498200D01*
X296200Y498200D01*
X296200Y516400D01*
X300700Y516400D01*
X300700Y499625D02*
X296200Y499625D01*
X296200Y501050D02*
X300700Y501050D01*
X300700Y502475D02*
X296200Y502475D01*
X296200Y503900D02*
X300700Y503900D01*
X300700Y505325D02*
X296200Y505325D01*
X296200Y506750D02*
X300700Y506750D01*
X300700Y508175D02*
X296200Y508175D01*
X296200Y509600D02*
X300700Y509600D01*
X300700Y511025D02*
X296200Y511025D01*
X296200Y512450D02*
X300700Y512450D01*
X300700Y513875D02*
X296200Y513875D01*
X296200Y515300D02*
X300700Y515300D01*
X288000Y516400D02*
X288000Y498200D01*
X283500Y498200D01*
X283500Y516400D01*
X288000Y516400D01*
X288000Y499625D02*
X283500Y499625D01*
X283500Y501050D02*
X288000Y501050D01*
X288000Y502475D02*
X283500Y502475D01*
X283500Y503900D02*
X288000Y503900D01*
X288000Y505325D02*
X283500Y505325D01*
X283500Y506750D02*
X288000Y506750D01*
X288000Y508175D02*
X283500Y508175D01*
X283500Y509600D02*
X288000Y509600D01*
X288000Y511025D02*
X283500Y511025D01*
X283500Y512450D02*
X288000Y512450D01*
X288000Y513875D02*
X283500Y513875D01*
X283500Y515300D02*
X288000Y515300D01*
X275300Y516400D02*
X275300Y498200D01*
X270800Y498200D01*
X270800Y516400D01*
X275300Y516400D01*
X275300Y499625D02*
X270800Y499625D01*
X270800Y501050D02*
X275300Y501050D01*
X275300Y502475D02*
X270800Y502475D01*
X270800Y503900D02*
X275300Y503900D01*
X275300Y505325D02*
X270800Y505325D01*
X270800Y506750D02*
X275300Y506750D01*
X275300Y508175D02*
X270800Y508175D01*
X270800Y509600D02*
X275300Y509600D01*
X275300Y511025D02*
X270800Y511025D01*
X270800Y512450D02*
X275300Y512450D01*
X275300Y513875D02*
X270800Y513875D01*
X270800Y515300D02*
X275300Y515300D01*
M02*
