M48
;GenerationSoftware,Autodesk,EAGLE,9.6.2*%
;CreationDate,2026-03-23T16:09:33Z*%
FMAT,2
ICI,OFF
METRIC,TZ,000.000
T4C0.710
T3C0.813
T2C1.016
T1C1.200
%
G90
M71
T1
X43180Y20066
X58420Y20066
X58420Y22606
X58420Y60706
X58420Y63246
X43180Y45466
X43180Y55626
X43180Y53086
X43180Y50546
X43180Y48006
X55880Y60706
X43180Y42926
X43180Y40386
X43180Y37846
X43180Y35306
X43180Y32766
X58420Y25146
X43180Y30226
X43180Y27686
X43180Y25146
X43180Y22606
X58420Y27686
X58420Y30226
X58420Y32766
X58420Y35306
X58420Y37846
X58420Y40386
X58420Y42926
X58420Y45466
X58420Y48006
X58420Y50546
X58420Y53086
X58420Y55626
X58420Y58166
T2
X34290Y6350
X40640Y10160
X40640Y2540
X80010Y64770
X85090Y64770
X90170Y64770
X80010Y52070
X85090Y52070
X90170Y52070
T3
X38100Y25400
X38100Y27940
X38100Y30480
X38100Y33020
X38100Y35560
X63500Y55880
X63500Y53340
X63500Y50800
X63500Y48260
X63500Y45720
X63500Y43180
X63500Y40640
X63500Y38100
X63500Y35560
X63500Y33020
X63500Y30480
X63500Y27940
X63500Y25400
X63500Y22860
X63500Y20320
X63500Y17780
X38100Y48260
X63500Y73660
X63500Y64770
X27940Y64770
X27940Y59690
X31750Y64770
X31750Y59690
X22860Y64770
X22860Y59690
X31750Y20320
X31750Y10160
X21590Y12700
X21590Y22860
X38100Y38100
X38100Y40640
X38100Y43180
X38100Y45720
X30480Y34290
X30480Y31750
X10160Y31750
X10160Y29210
X69850Y50800
X69850Y40640
X78740Y46990
X78740Y36830
X6350Y25400
X6350Y15240
X13970Y16510
X13970Y26670
X16510Y54610
X86360Y41910
X88900Y41910
X69850Y21590
X69850Y11430
X87630Y11430
X87630Y21590
X38100Y50800
X38100Y53340
X38100Y55880
X38100Y17780
X38100Y20320
X38100Y22860
X22860Y46990
X22860Y57150
X16510Y44450
X49530Y3810
X12700Y44450
X12700Y54610
X20320Y39370
X20320Y41910
X30480Y41910
X27940Y41910
X30480Y38100
X27940Y38100
X43180Y10160
X53340Y10160
X58420Y12700
X58420Y2540
X63500Y10160
X63500Y12700
X52070Y3810
T4
X10160Y11430
X12700Y11430
X15240Y11430
M30